<svg width="1068" height="1535" viewBox="0 0 1068 1535" class="keymap" xmlns="http://www.w3.org/2000/svg" xmlns:xlink="http://www.w3.org/1999/xlink">
<style>.key {
  fill: #eee;
  stroke: #888;
}
.shifted {
  fill: #ddd;
}
text {
  font-family: sans-serif;
  fill: #333;
  text-anchor: middle;
  dominant-baseline: central;
}
.combo {
  fill: #ccf;
}
.hold {
  fill: #faa;
} </style>
<g transform="translate(30, 0)" class="layer-Base">
<text x="0" y="28" class="label" id="Base">Base:</text>
<g transform="translate(0, 56)">
<g transform="translate(35, 42)" class="key keypos-0">
<rect rx="6" ry="6" x="-33" y="-26" width="66" height="52" class="key"/>
<text x="0" y="0" class="key tap">Esc</text>
</g>
<g transform="translate(98, 42)" class="key keypos-1">
<rect rx="6" ry="6" x="-26" y="-26" width="52" height="52" class="key"/>
<text x="0" y="0" class="key tap">1</text>
</g>
<g transform="translate(154, 28)" class="key keypos-2">
<rect rx="6" ry="6" x="-26" y="-26" width="52" height="52" class="key"/>
<text x="0" y="0" class="key tap">2</text>
</g>
<g transform="translate(210, 28)" class="key keypos-3">
<rect rx="6" ry="6" x="-26" y="-26" width="52" height="52" class="key"/>
<text x="0" y="0" class="key tap">3</text>
</g>
<g transform="translate(266, 28)" class="key keypos-4">
<rect rx="6" ry="6" x="-26" y="-26" width="52" height="52" class="key"/>
<text x="0" y="0" class="key tap">4</text>
</g>
<g transform="translate(322, 28)" class="key keypos-5">
<rect rx="6" ry="6" x="-26" y="-26" width="52" height="52" class="key"/>
<text x="0" y="0" class="key tap">5</text>
</g>
<g transform="translate(378, 28)" class="key keypos-6">
<rect rx="6" ry="6" x="-26" y="-26" width="52" height="52" class="key"/>
<text x="0" y="0" class="key tap">+</text>
</g>
<g transform="translate(630, 28)" class="key keypos-7">
<rect rx="6" ry="6" x="-26" y="-26" width="52" height="52" class="key"/>
<text x="0" y="0" class="key tap">Fn2</text>
</g>
<g transform="translate(686, 28)" class="key keypos-8">
<rect rx="6" ry="6" x="-26" y="-26" width="52" height="52" class="key"/>
<text x="0" y="0" class="key tap">6</text>
</g>
<g transform="translate(742, 28)" class="key keypos-9">
<rect rx="6" ry="6" x="-26" y="-26" width="52" height="52" class="key"/>
<text x="0" y="0" class="key tap">7</text>
</g>
<g transform="translate(798, 28)" class="key keypos-10">
<rect rx="6" ry="6" x="-26" y="-26" width="52" height="52" class="key"/>
<text x="0" y="0" class="key tap">8</text>
</g>
<g transform="translate(854, 28)" class="key keypos-11">
<rect rx="6" ry="6" x="-26" y="-26" width="52" height="52" class="key"/>
<text x="0" y="0" class="key tap">9</text>
</g>
<g transform="translate(910, 42)" class="key keypos-12">
<rect rx="6" ry="6" x="-26" y="-26" width="52" height="52" class="key"/>
<text x="0" y="0" class="key tap">0</text>
</g>
<g transform="translate(973, 42)" class="key keypos-13">
<rect rx="6" ry="6" x="-33" y="-26" width="66" height="52" class="key"/>
<text x="0" y="0" class="key tap">-</text>
</g>
<g transform="translate(35, 98)" class="key keypos-14">
<rect rx="6" ry="6" x="-33" y="-26" width="66" height="52" class="key"/>
<text x="0" y="0" class="key tap">Tab</text>
</g>
<g transform="translate(98, 98)" class="key keypos-15">
<rect rx="6" ry="6" x="-26" y="-26" width="52" height="52" class="key"/>
<text x="0" y="0" class="key tap">Q</text>
</g>
<g transform="translate(154, 84)" class="key keypos-16">
<rect rx="6" ry="6" x="-26" y="-26" width="52" height="52" class="key"/>
<text x="0" y="0" class="key tap">W</text>
</g>
<g transform="translate(210, 84)" class="key keypos-17">
<rect rx="6" ry="6" x="-26" y="-26" width="52" height="52" class="key"/>
<text x="0" y="0" class="key tap">E</text>
</g>
<g transform="translate(266, 84)" class="key keypos-18">
<rect rx="6" ry="6" x="-26" y="-26" width="52" height="52" class="key"/>
<text x="0" y="0" class="key tap">R</text>
</g>
<g transform="translate(322, 84)" class="key keypos-19">
<rect rx="6" ry="6" x="-26" y="-26" width="52" height="52" class="key"/>
<text x="0" y="0" class="key tap">T</text>
</g>
<g transform="translate(378, 84)" class="key keypos-20">
<rect rx="6" ry="6" x="-26" y="-26" width="52" height="52" class="key"/>
<text x="0" y="0" class="key tap">-</text>
</g>
<g transform="translate(630, 84)" class="key keypos-21">
<rect rx="6" ry="6" x="-26" y="-26" width="52" height="52" class="key"/>
</g>
<g transform="translate(686, 84)" class="key keypos-22">
<rect rx="6" ry="6" x="-26" y="-26" width="52" height="52" class="key"/>
<text x="0" y="0" class="key tap">Y</text>
</g>
<g transform="translate(742, 84)" class="key keypos-23">
<rect rx="6" ry="6" x="-26" y="-26" width="52" height="52" class="key"/>
<text x="0" y="0" class="key tap">U</text>
</g>
<g transform="translate(798, 84)" class="key keypos-24">
<rect rx="6" ry="6" x="-26" y="-26" width="52" height="52" class="key"/>
<text x="0" y="0" class="key tap">I</text>
</g>
<g transform="translate(854, 84)" class="key keypos-25">
<rect rx="6" ry="6" x="-26" y="-26" width="52" height="52" class="key"/>
<text x="0" y="0" class="key tap">O</text>
</g>
<g transform="translate(910, 98)" class="key keypos-26">
<rect rx="6" ry="6" x="-26" y="-26" width="52" height="52" class="key"/>
<text x="0" y="0" class="key tap">P</text>
</g>
<g transform="translate(973, 98)" class="key keypos-27">
<rect rx="6" ry="6" x="-33" y="-26" width="66" height="52" class="key"/>
<text x="0" y="0" class="key tap">\</text>
</g>
<g transform="translate(35, 154)" class="key keypos-28">
<rect rx="6" ry="6" x="-33" y="-26" width="66" height="52" class="key"/>
<text x="0" y="0" class="key tap">Fn1</text>
</g>
<g transform="translate(98, 154)" class="key keypos-29">
<rect rx="6" ry="6" x="-26" y="-26" width="52" height="52" class="key"/>
<text x="0" y="0" class="key tap">A</text>
</g>
<g transform="translate(154, 140)" class="key keypos-30">
<rect rx="6" ry="6" x="-26" y="-26" width="52" height="52" class="key"/>
<text x="0" y="0" class="key tap">S</text>
</g>
<g transform="translate(210, 140)" class="key keypos-31">
<rect rx="6" ry="6" x="-26" y="-26" width="52" height="52" class="key"/>
<text x="0" y="0" class="key tap">D</text>
</g>
<g transform="translate(266, 140)" class="key keypos-32">
<rect rx="6" ry="6" x="-26" y="-26" width="52" height="52" class="key"/>
<text x="0" y="0" class="key tap">F</text>
</g>
<g transform="translate(322, 140)" class="key keypos-33">
<rect rx="6" ry="6" x="-26" y="-26" width="52" height="52" class="key"/>
<text x="0" y="0" class="key tap">G</text>
</g>
<g transform="translate(378, 140)" class="key keypos-34">
<rect rx="6" ry="6" x="-26" y="-26" width="52" height="52" class="key"/>
</g>
<g transform="translate(395, 280) rotate(15.0)" class="key keypos-35">
<rect rx="6" ry="6" x="-26" y="-26" width="52" height="52" class="key"/>
<text x="0" y="0" class="key tap">(</text>
</g>
<g transform="translate(449, 295) rotate(15.0)" class="key keypos-36">
<rect rx="6" ry="6" x="-26" y="-26" width="52" height="52" class="key"/>
<text x="0" y="0" class="key tap">)</text>
</g>
<g transform="translate(559, 295) rotate(-15.0)" class="key keypos-37">
<rect rx="6" ry="6" x="-26" y="-26" width="52" height="52" class="key"/>
<text x="0" y="0" class="key tap">{</text>
</g>
<g transform="translate(613, 280) rotate(-15.0)" class="key keypos-38">
<rect rx="6" ry="6" x="-26" y="-26" width="52" height="52" class="key"/>
<text x="0" y="0" class="key tap">}</text>
</g>
<g transform="translate(630, 140)" class="key keypos-39">
<rect rx="6" ry="6" x="-26" y="-26" width="52" height="52" class="key"/>
</g>
<g transform="translate(686, 140)" class="key keypos-40">
<rect rx="6" ry="6" x="-26" y="-26" width="52" height="52" class="key"/>
<text x="0" y="0" class="key tap">H</text>
</g>
<g transform="translate(742, 140)" class="key keypos-41">
<rect rx="6" ry="6" x="-26" y="-26" width="52" height="52" class="key"/>
<text x="0" y="0" class="key tap">J</text>
</g>
<g transform="translate(798, 140)" class="key keypos-42">
<rect rx="6" ry="6" x="-26" y="-26" width="52" height="52" class="key"/>
<text x="0" y="0" class="key tap">K</text>
</g>
<g transform="translate(854, 140)" class="key keypos-43">
<rect rx="6" ry="6" x="-26" y="-26" width="52" height="52" class="key"/>
<text x="0" y="0" class="key tap">L</text>
</g>
<g transform="translate(910, 154)" class="key keypos-44">
<rect rx="6" ry="6" x="-26" y="-26" width="52" height="52" class="key"/>
<text x="0" y="0" class="key tap">;</text>
</g>
<g transform="translate(973, 154)" class="key keypos-45">
<rect rx="6" ry="6" x="-33" y="-26" width="66" height="52" class="key"/>
<text x="0" y="0" class="key tap">&#x27;</text>
</g>
<g transform="translate(35, 210)" class="key keypos-46">
<rect rx="6" ry="6" x="-33" y="-26" width="66" height="52" class="key"/>
<text x="0" y="0" class="key tap">Shift</text>
</g>
<g transform="translate(98, 210)" class="key keypos-47">
<rect rx="6" ry="6" x="-26" y="-26" width="52" height="52" class="key"/>
<text x="0" y="0" class="key tap">Z</text>
</g>
<g transform="translate(154, 196)" class="key keypos-48">
<rect rx="6" ry="6" x="-26" y="-26" width="52" height="52" class="key"/>
<text x="0" y="0" class="key tap">X</text>
</g>
<g transform="translate(210, 196)" class="key keypos-49">
<rect rx="6" ry="6" x="-26" y="-26" width="52" height="52" class="key"/>
<text x="0" y="0" class="key tap">C</text>
</g>
<g transform="translate(266, 196)" class="key keypos-50">
<rect rx="6" ry="6" x="-26" y="-26" width="52" height="52" class="key"/>
<text x="0" y="0" class="key tap">V</text>
</g>
<g transform="translate(322, 196)" class="key keypos-51">
<rect rx="6" ry="6" x="-26" y="-26" width="52" height="52" class="key"/>
<text x="0" y="0" class="key tap">B</text>
</g>
<g transform="translate(435, 349) rotate(15.0)" class="key keypos-52">
<rect rx="6" ry="6" x="-26" y="-26" width="52" height="52" class="key"/>
<text x="0" y="0" class="key tap">
<tspan x="0" dy="-0.6em">Sft+Gui</tspan><tspan x="0" dy="1.2em">+4</tspan>
</text>
</g>
<g transform="translate(573, 349) rotate(-15.0)" class="key keypos-53">
<rect rx="6" ry="6" x="-26" y="-26" width="52" height="52" class="key"/>
<text x="0" y="0" class="key tap">↑</text>
</g>
<g transform="translate(686, 196)" class="key keypos-54">
<rect rx="6" ry="6" x="-26" y="-26" width="52" height="52" class="key"/>
<text x="0" y="0" class="key tap">N</text>
</g>
<g transform="translate(742, 196)" class="key keypos-55">
<rect rx="6" ry="6" x="-26" y="-26" width="52" height="52" class="key"/>
<text x="0" y="0" class="key tap">M</text>
</g>
<g transform="translate(798, 196)" class="key keypos-56">
<rect rx="6" ry="6" x="-26" y="-26" width="52" height="52" class="key"/>
<text x="0" y="0" class="key tap">,</text>
</g>
<g transform="translate(854, 196)" class="key keypos-57">
<rect rx="6" ry="6" x="-26" y="-26" width="52" height="52" class="key"/>
<text x="0" y="0" class="key tap">.</text>
</g>
<g transform="translate(910, 210)" class="key keypos-58">
<rect rx="6" ry="6" x="-26" y="-26" width="52" height="52" class="key"/>
<text x="0" y="0" class="key tap">/</text>
</g>
<g transform="translate(973, 210)" class="key keypos-59">
<rect rx="6" ry="6" x="-33" y="-26" width="66" height="52" class="key"/>
<text x="0" y="0" class="key tap">Shift</text>
</g>
<g transform="translate(35, 266)" class="key keypos-60">
<rect rx="6" ry="6" x="-33" y="-26" width="66" height="52" class="key"/>
<text x="0" y="0" class="key tap">Ctrl</text>
</g>
<g transform="translate(98, 266)" class="key keypos-61">
<rect rx="6" ry="6" x="-26" y="-26" width="52" height="52" class="key"/>
<text x="0" y="0" class="key tap">Alt</text>
</g>
<g transform="translate(154, 252)" class="key keypos-62">
<rect rx="6" ry="6" x="-26" y="-26" width="52" height="52" class="key"/>
<text x="0" y="0" class="key tap">-</text>
</g>
<g transform="translate(210, 252)" class="key keypos-63">
<rect rx="6" ry="6" x="-26" y="-26" width="52" height="52" class="key"/>
<text x="0" y="0" class="key tap">+</text>
</g>
<g transform="translate(266, 252)" class="key keypos-64">
<rect rx="6" ry="6" x="-26" y="-26" width="52" height="52" class="key"/>
<text x="0" y="0" class="key tap">=</text>
</g>
<g transform="translate(319, 347) rotate(15.0)" class="key keypos-65">
<rect rx="6" ry="6" x="-26" y="-54" width="52" height="108" class="key"/>
<text x="0" y="0" class="key tap">Space</text>
</g>
<g transform="translate(373, 361) rotate(15.0)" class="key keypos-66">
<rect rx="6" ry="6" x="-26" y="-54" width="52" height="108" class="key"/>
<text x="0" y="0" class="key tap">Cmd</text>
</g>
<g transform="translate(420, 403) rotate(15.0)" class="key keypos-67">
<rect rx="6" ry="6" x="-26" y="-26" width="52" height="52" class="key"/>
<text x="0" y="0" class="key tap">Fn1</text>
</g>
<g transform="translate(588, 403) rotate(-15.0)" class="key keypos-68">
<rect rx="6" ry="6" x="-26" y="-26" width="52" height="52" class="key"/>
<text x="0" y="0" class="key tap">↓</text>
</g>
<g transform="translate(635, 361) rotate(-15.0)" class="key keypos-69">
<rect rx="6" ry="6" x="-26" y="-54" width="52" height="108" class="key"/>
<text x="0" y="0" class="key tap">Enter</text>
</g>
<g transform="translate(689, 347) rotate(-15.0)" class="key keypos-70">
<rect rx="6" ry="6" x="-26" y="-54" width="52" height="108" class="key"/>
<text x="0" y="0" class="key tap">⌫</text>
</g>
<g transform="translate(742, 252)" class="key keypos-71">
<rect rx="6" ry="6" x="-26" y="-26" width="52" height="52" class="key"/>
</g>
<g transform="translate(798, 252)" class="key keypos-72">
<rect rx="6" ry="6" x="-26" y="-26" width="52" height="52" class="key"/>
<text x="0" y="0" class="key tap">←</text>
</g>
<g transform="translate(854, 252)" class="key keypos-73">
<rect rx="6" ry="6" x="-26" y="-26" width="52" height="52" class="key"/>
<text x="0" y="0" class="key tap">→</text>
</g>
<g transform="translate(910, 266)" class="key keypos-74">
<rect rx="6" ry="6" x="-26" y="-26" width="52" height="52" class="key"/>
</g>
<g transform="translate(973, 266)" class="key keypos-75">
<rect rx="6" ry="6" x="-33" y="-26" width="66" height="52" class="key"/>
<text x="0" y="0" class="key tap">~</text>
</g>
</g>
</g>
<g transform="translate(30, 493)" class="layer-L1">
<text x="0" y="28" class="label" id="L1">L1:</text>
<g transform="translate(0, 56)">
<g transform="translate(35, 42)" class="key keypos-0">
<rect rx="6" ry="6" x="-33" y="-26" width="66" height="52" class="key"/>
</g>
<g transform="translate(98, 42)" class="key keypos-1">
<rect rx="6" ry="6" x="-26" y="-26" width="52" height="52" class="key"/>
</g>
<g transform="translate(154, 28)" class="key keypos-2">
<rect rx="6" ry="6" x="-26" y="-26" width="52" height="52" class="key"/>
</g>
<g transform="translate(210, 28)" class="key keypos-3">
<rect rx="6" ry="6" x="-26" y="-26" width="52" height="52" class="key"/>
<text x="0" y="0" class="key tap">€</text>
</g>
<g transform="translate(266, 28)" class="key keypos-4">
<rect rx="6" ry="6" x="-26" y="-26" width="52" height="52" class="key"/>
<text x="0" y="0" class="key tap">£</text>
</g>
<g transform="translate(322, 28)" class="key keypos-5">
<rect rx="6" ry="6" x="-26" y="-26" width="52" height="52" class="key"/>
</g>
<g transform="translate(378, 28)" class="key keypos-6">
<rect rx="6" ry="6" x="-26" y="-26" width="52" height="52" class="key"/>
<text x="0" y="0" class="key tap">BOOT</text>
</g>
<g transform="translate(630, 28)" class="key keypos-7">
<rect rx="6" ry="6" x="-26" y="-26" width="52" height="52" class="key"/>
<text x="0" y="0" class="key tap">BOOT</text>
</g>
<g transform="translate(686, 28)" class="key keypos-8">
<rect rx="6" ry="6" x="-26" y="-26" width="52" height="52" class="key"/>
</g>
<g transform="translate(742, 28)" class="key keypos-9">
<rect rx="6" ry="6" x="-26" y="-26" width="52" height="52" class="key"/>
</g>
<g transform="translate(798, 28)" class="key keypos-10">
<rect rx="6" ry="6" x="-26" y="-26" width="52" height="52" class="key"/>
<text x="0" y="0" class="key tap">/</text>
</g>
<g transform="translate(854, 28)" class="key keypos-11">
<rect rx="6" ry="6" x="-26" y="-26" width="52" height="52" class="key"/>
<text x="0" y="0" class="key tap">×</text>
</g>
<g transform="translate(910, 42)" class="key keypos-12">
<rect rx="6" ry="6" x="-26" y="-26" width="52" height="52" class="key"/>
</g>
<g transform="translate(973, 42)" class="key keypos-13">
<rect rx="6" ry="6" x="-33" y="-26" width="66" height="52" class="key"/>
<text x="0" y="0" class="key tap">_</text>
</g>
<g transform="translate(35, 98)" class="key keypos-14">
<rect rx="6" ry="6" x="-33" y="-26" width="66" height="52" class="key"/>
</g>
<g transform="translate(98, 98)" class="key keypos-15">
<rect rx="6" ry="6" x="-26" y="-26" width="52" height="52" class="key"/>
<text x="0" y="0" class="key tap">
<tspan x="0" dy="-0.6em">Gui+</tspan><tspan x="0" dy="1.2em">LEFT</tspan>
</text>
</g>
<g transform="translate(154, 84)" class="key keypos-16">
<rect rx="6" ry="6" x="-26" y="-26" width="52" height="52" class="key"/>
<text x="0" y="0" class="key tap">
<tspan x="0" dy="-0.6em">Alt+</tspan><tspan x="0" dy="1.2em">LEFT</tspan>
</text>
</g>
<g transform="translate(210, 84)" class="key keypos-17">
<rect rx="6" ry="6" x="-26" y="-26" width="52" height="52" class="key"/>
<text x="0" y="0" class="key tap">↑</text>
</g>
<g transform="translate(266, 84)" class="key keypos-18">
<rect rx="6" ry="6" x="-26" y="-26" width="52" height="52" class="key"/>
<text x="0" y="0" class="key tap">
<tspan x="0" dy="-0.6em">Alt+</tspan><tspan x="0" dy="1.2em">RIGHT</tspan>
</text>
</g>
<g transform="translate(322, 84)" class="key keypos-19">
<rect rx="6" ry="6" x="-26" y="-26" width="52" height="52" class="key"/>
<text x="0" y="0" class="key tap">
<tspan x="0" dy="-0.6em">Gui+</tspan><tspan x="0" dy="1.2em">RIGHT</tspan>
</text>
</g>
<g transform="translate(378, 84)" class="key keypos-20">
<rect rx="6" ry="6" x="-26" y="-26" width="52" height="52" class="key"/>
</g>
<g transform="translate(630, 84)" class="key keypos-21">
<rect rx="6" ry="6" x="-26" y="-26" width="52" height="52" class="key"/>
</g>
<g transform="translate(686, 84)" class="key keypos-22">
<rect rx="6" ry="6" x="-26" y="-26" width="52" height="52" class="key"/>
</g>
<g transform="translate(742, 84)" class="key keypos-23">
<rect rx="6" ry="6" x="-26" y="-26" width="52" height="52" class="key"/>
<text x="0" y="0" class="key tap">7</text>
</g>
<g transform="translate(798, 84)" class="key keypos-24">
<rect rx="6" ry="6" x="-26" y="-26" width="52" height="52" class="key"/>
<text x="0" y="0" class="key tap">8</text>
</g>
<g transform="translate(854, 84)" class="key keypos-25">
<rect rx="6" ry="6" x="-26" y="-26" width="52" height="52" class="key"/>
<text x="0" y="0" class="key tap">9</text>
</g>
<g transform="translate(910, 98)" class="key keypos-26">
<rect rx="6" ry="6" x="-26" y="-26" width="52" height="52" class="key"/>
</g>
<g transform="translate(973, 98)" class="key keypos-27">
<rect rx="6" ry="6" x="-33" y="-26" width="66" height="52" class="key"/>
<text x="0" y="0" class="key tap">Alt+A</text>
</g>
<g transform="translate(35, 154)" class="key keypos-28">
<rect rx="6" ry="6" x="-33" y="-26" width="66" height="52" class="key"/>
</g>
<g transform="translate(98, 154)" class="key keypos-29">
<rect rx="6" ry="6" x="-26" y="-26" width="52" height="52" class="key"/>
</g>
<g transform="translate(154, 140)" class="key keypos-30">
<rect rx="6" ry="6" x="-26" y="-26" width="52" height="52" class="key"/>
<text x="0" y="0" class="key tap">←</text>
</g>
<g transform="translate(210, 140)" class="key keypos-31">
<rect rx="6" ry="6" x="-26" y="-26" width="52" height="52" class="key"/>
<text x="0" y="0" class="key tap">↓</text>
</g>
<g transform="translate(266, 140)" class="key keypos-32">
<rect rx="6" ry="6" x="-26" y="-26" width="52" height="52" class="key"/>
<text x="0" y="0" class="key tap">→</text>
</g>
<g transform="translate(322, 140)" class="key keypos-33">
<rect rx="6" ry="6" x="-26" y="-26" width="52" height="52" class="key"/>
</g>
<g transform="translate(378, 140)" class="key keypos-34">
<rect rx="6" ry="6" x="-26" y="-26" width="52" height="52" class="key"/>
<text x="0" y="0" class="key tap">Email</text>
</g>
<g transform="translate(395, 280) rotate(15.0)" class="key keypos-35">
<rect rx="6" ry="6" x="-26" y="-26" width="52" height="52" class="key"/>
</g>
<g transform="translate(449, 295) rotate(15.0)" class="key keypos-36">
<rect rx="6" ry="6" x="-26" y="-26" width="52" height="52" class="key"/>
</g>
<g transform="translate(559, 295) rotate(-15.0)" class="key keypos-37">
<rect rx="6" ry="6" x="-26" y="-26" width="52" height="52" class="key"/>
<text x="0" y="0" class="key tap">[</text>
</g>
<g transform="translate(613, 280) rotate(-15.0)" class="key keypos-38">
<rect rx="6" ry="6" x="-26" y="-26" width="52" height="52" class="key"/>
<text x="0" y="0" class="key tap">]</text>
</g>
<g transform="translate(630, 140)" class="key keypos-39">
<rect rx="6" ry="6" x="-26" y="-26" width="52" height="52" class="key"/>
</g>
<g transform="translate(686, 140)" class="key keypos-40">
<rect rx="6" ry="6" x="-26" y="-26" width="52" height="52" class="key"/>
</g>
<g transform="translate(742, 140)" class="key keypos-41">
<rect rx="6" ry="6" x="-26" y="-26" width="52" height="52" class="key"/>
<text x="0" y="0" class="key tap">4</text>
</g>
<g transform="translate(798, 140)" class="key keypos-42">
<rect rx="6" ry="6" x="-26" y="-26" width="52" height="52" class="key"/>
<text x="0" y="0" class="key tap">5</text>
</g>
<g transform="translate(854, 140)" class="key keypos-43">
<rect rx="6" ry="6" x="-26" y="-26" width="52" height="52" class="key"/>
<text x="0" y="0" class="key tap">6</text>
</g>
<g transform="translate(910, 154)" class="key keypos-44">
<rect rx="6" ry="6" x="-26" y="-26" width="52" height="52" class="key"/>
<text x="0" y="0" class="key tap">ö</text>
</g>
<g transform="translate(973, 154)" class="key keypos-45">
<rect rx="6" ry="6" x="-33" y="-26" width="66" height="52" class="key"/>
<text x="0" y="0" class="key tap">å</text>
</g>
<g transform="translate(35, 210)" class="key keypos-46">
<rect rx="6" ry="6" x="-33" y="-26" width="66" height="52" class="key"/>
<text x="0" y="0" class="key tap">
<tspan x="0" dy="-0.6em">Alt+Gui</tspan><tspan x="0" dy="1.2em">+Ctl+1</tspan>
</text>
</g>
<g transform="translate(98, 210)" class="key keypos-47">
<rect rx="6" ry="6" x="-26" y="-26" width="52" height="52" class="key"/>
<text x="0" y="0" class="key tap"><tspan style="font-size: 88%">WhatsApp</tspan></text>
</g>
<g transform="translate(154, 196)" class="key keypos-48">
<rect rx="6" ry="6" x="-26" y="-26" width="52" height="52" class="key"/>
<text x="0" y="0" class="key tap">Spotify</text>
</g>
<g transform="translate(210, 196)" class="key keypos-49">
<rect rx="6" ry="6" x="-26" y="-26" width="52" height="52" class="key"/>
<text x="0" y="0" class="key tap">Chrome</text>
</g>
<g transform="translate(266, 196)" class="key keypos-50">
<rect rx="6" ry="6" x="-26" y="-26" width="52" height="52" class="key"/>
<text x="0" y="0" class="key tap">Cursor</text>
</g>
<g transform="translate(322, 196)" class="key keypos-51">
<rect rx="6" ry="6" x="-26" y="-26" width="52" height="52" class="key"/>
<text x="0" y="0" class="key tap">GitHub</text>
</g>
<g transform="translate(435, 349) rotate(15.0)" class="key keypos-52">
<rect rx="6" ry="6" x="-26" y="-26" width="52" height="52" class="key"/>
</g>
<g transform="translate(573, 349) rotate(-15.0)" class="key keypos-53">
<rect rx="6" ry="6" x="-26" y="-26" width="52" height="52" class="key"/>
</g>
<g transform="translate(686, 196)" class="key keypos-54">
<rect rx="6" ry="6" x="-26" y="-26" width="52" height="52" class="key"/>
</g>
<g transform="translate(742, 196)" class="key keypos-55">
<rect rx="6" ry="6" x="-26" y="-26" width="52" height="52" class="key"/>
<text x="0" y="0" class="key tap">1</text>
</g>
<g transform="translate(798, 196)" class="key keypos-56">
<rect rx="6" ry="6" x="-26" y="-26" width="52" height="52" class="key"/>
<text x="0" y="0" class="key tap">2</text>
</g>
<g transform="translate(854, 196)" class="key keypos-57">
<rect rx="6" ry="6" x="-26" y="-26" width="52" height="52" class="key"/>
<text x="0" y="0" class="key tap">3</text>
</g>
<g transform="translate(910, 210)" class="key keypos-58">
<rect rx="6" ry="6" x="-26" y="-26" width="52" height="52" class="key"/>
</g>
<g transform="translate(973, 210)" class="key keypos-59">
<rect rx="6" ry="6" x="-33" y="-26" width="66" height="52" class="key"/>
</g>
<g transform="translate(35, 266)" class="key keypos-60">
<rect rx="6" ry="6" x="-33" y="-26" width="66" height="52" class="key"/>
</g>
<g transform="translate(98, 266)" class="key keypos-61">
<rect rx="6" ry="6" x="-26" y="-26" width="52" height="52" class="key"/>
</g>
<g transform="translate(154, 252)" class="key keypos-62">
<rect rx="6" ry="6" x="-26" y="-26" width="52" height="52" class="key"/>
</g>
<g transform="translate(210, 252)" class="key keypos-63">
<rect rx="6" ry="6" x="-26" y="-26" width="52" height="52" class="key"/>
<text x="0" y="0" class="key tap">LeftScr</text>
</g>
<g transform="translate(266, 252)" class="key keypos-64">
<rect rx="6" ry="6" x="-26" y="-26" width="52" height="52" class="key"/>
<text x="0" y="0" class="key tap"><tspan style="font-size: 88%">RightScr</tspan></text>
</g>
<g transform="translate(319, 347) rotate(15.0)" class="key keypos-65">
<rect rx="6" ry="6" x="-26" y="-54" width="52" height="108" class="key"/>
</g>
<g transform="translate(373, 361) rotate(15.0)" class="key keypos-66">
<rect rx="6" ry="6" x="-26" y="-54" width="52" height="108" class="key"/>
</g>
<g transform="translate(420, 403) rotate(15.0)" class="key keypos-67">
<rect rx="6" ry="6" x="-26" y="-26" width="52" height="52" class="key"/>
</g>
<g transform="translate(588, 403) rotate(-15.0)" class="key keypos-68">
<rect rx="6" ry="6" x="-26" y="-26" width="52" height="52" class="key"/>
</g>
<g transform="translate(635, 361) rotate(-15.0)" class="key keypos-69">
<rect rx="6" ry="6" x="-26" y="-54" width="52" height="108" class="key"/>
</g>
<g transform="translate(689, 347) rotate(-15.0)" class="key keypos-70">
<rect rx="6" ry="6" x="-26" y="-54" width="52" height="108" class="key"/>
</g>
<g transform="translate(742, 252)" class="key keypos-71">
<rect rx="6" ry="6" x="-26" y="-26" width="52" height="52" class="key"/>
<text x="0" y="0" class="key tap">0</text>
</g>
<g transform="translate(798, 252)" class="key keypos-72">
<rect rx="6" ry="6" x="-26" y="-26" width="52" height="52" class="key"/>
</g>
<g transform="translate(854, 252)" class="key keypos-73">
<rect rx="6" ry="6" x="-26" y="-26" width="52" height="52" class="key"/>
<text x="0" y="0" class="key tap">.</text>
</g>
<g transform="translate(910, 266)" class="key keypos-74">
<rect rx="6" ry="6" x="-26" y="-26" width="52" height="52" class="key"/>
</g>
<g transform="translate(973, 266)" class="key keypos-75">
<rect rx="6" ry="6" x="-33" y="-26" width="66" height="52" class="key"/>
</g>
</g>
</g>
<g transform="translate(30, 986)" class="layer-Mod">
<text x="0" y="28" class="label" id="Mod">Mod:</text>
<g transform="translate(0, 56)">
<g transform="translate(35, 42)" class="key keypos-0">
<rect rx="6" ry="6" x="-33" y="-26" width="66" height="52" class="key"/>
</g>
<g transform="translate(98, 42)" class="key keypos-1">
<rect rx="6" ry="6" x="-26" y="-26" width="52" height="52" class="key"/>
<text x="0" y="0" class="key tap">BT</text>
<text x="0" y="24" class="key hold">0</text>
</g>
<g transform="translate(154, 28)" class="key keypos-2">
<rect rx="6" ry="6" x="-26" y="-26" width="52" height="52" class="key"/>
<text x="0" y="0" class="key tap">BT</text>
<text x="0" y="24" class="key hold">1</text>
</g>
<g transform="translate(210, 28)" class="key keypos-3">
<rect rx="6" ry="6" x="-26" y="-26" width="52" height="52" class="key"/>
<text x="0" y="0" class="key tap">BT</text>
<text x="0" y="24" class="key hold">2</text>
</g>
<g transform="translate(266, 28)" class="key keypos-4">
<rect rx="6" ry="6" x="-26" y="-26" width="52" height="52" class="key"/>
<text x="0" y="0" class="key tap">BT</text>
<text x="0" y="24" class="key hold">3</text>
</g>
<g transform="translate(322, 28)" class="key keypos-5">
<rect rx="6" ry="6" x="-26" y="-26" width="52" height="52" class="key"/>
<text x="0" y="0" class="key tap">BT</text>
<text x="0" y="24" class="key hold">4</text>
</g>
<g transform="translate(378, 28)" class="key keypos-6">
<rect rx="6" ry="6" x="-26" y="-26" width="52" height="52" class="key"/>
</g>
<g transform="translate(630, 28)" class="key keypos-7">
<rect rx="6" ry="6" x="-26" y="-26" width="52" height="52" class="key"/>
</g>
<g transform="translate(686, 28)" class="key keypos-8">
<rect rx="6" ry="6" x="-26" y="-26" width="52" height="52" class="key"/>
</g>
<g transform="translate(742, 28)" class="key keypos-9">
<rect rx="6" ry="6" x="-26" y="-26" width="52" height="52" class="key"/>
</g>
<g transform="translate(798, 28)" class="key keypos-10">
<rect rx="6" ry="6" x="-26" y="-26" width="52" height="52" class="key"/>
</g>
<g transform="translate(854, 28)" class="key keypos-11">
<rect rx="6" ry="6" x="-26" y="-26" width="52" height="52" class="key"/>
</g>
<g transform="translate(910, 42)" class="key keypos-12">
<rect rx="6" ry="6" x="-26" y="-26" width="52" height="52" class="key"/>
</g>
<g transform="translate(973, 42)" class="key keypos-13">
<rect rx="6" ry="6" x="-33" y="-26" width="66" height="52" class="key"/>
</g>
<g transform="translate(35, 98)" class="key keypos-14">
<rect rx="6" ry="6" x="-33" y="-26" width="66" height="52" class="key"/>
</g>
<g transform="translate(98, 98)" class="key keypos-15">
<rect rx="6" ry="6" x="-26" y="-26" width="52" height="52" class="key"/>
</g>
<g transform="translate(154, 84)" class="key keypos-16">
<rect rx="6" ry="6" x="-26" y="-26" width="52" height="52" class="key"/>
</g>
<g transform="translate(210, 84)" class="key keypos-17">
<rect rx="6" ry="6" x="-26" y="-26" width="52" height="52" class="key"/>
</g>
<g transform="translate(266, 84)" class="key keypos-18">
<rect rx="6" ry="6" x="-26" y="-26" width="52" height="52" class="key"/>
</g>
<g transform="translate(322, 84)" class="key keypos-19">
<rect rx="6" ry="6" x="-26" y="-26" width="52" height="52" class="key"/>
</g>
<g transform="translate(378, 84)" class="key keypos-20">
<rect rx="6" ry="6" x="-26" y="-26" width="52" height="52" class="key"/>
<text x="0" y="0" class="key tap">BOOT</text>
</g>
<g transform="translate(630, 84)" class="key keypos-21">
<rect rx="6" ry="6" x="-26" y="-26" width="52" height="52" class="key"/>
<text x="0" y="0" class="key tap">BOOT</text>
</g>
<g transform="translate(686, 84)" class="key keypos-22">
<rect rx="6" ry="6" x="-26" y="-26" width="52" height="52" class="key"/>
</g>
<g transform="translate(742, 84)" class="key keypos-23">
<rect rx="6" ry="6" x="-26" y="-26" width="52" height="52" class="key"/>
</g>
<g transform="translate(798, 84)" class="key keypos-24">
<rect rx="6" ry="6" x="-26" y="-26" width="52" height="52" class="key"/>
</g>
<g transform="translate(854, 84)" class="key keypos-25">
<rect rx="6" ry="6" x="-26" y="-26" width="52" height="52" class="key"/>
</g>
<g transform="translate(910, 98)" class="key keypos-26">
<rect rx="6" ry="6" x="-26" y="-26" width="52" height="52" class="key"/>
</g>
<g transform="translate(973, 98)" class="key keypos-27">
<rect rx="6" ry="6" x="-33" y="-26" width="66" height="52" class="key"/>
</g>
<g transform="translate(35, 154)" class="key keypos-28">
<rect rx="6" ry="6" x="-33" y="-26" width="66" height="52" class="key"/>
<text x="0" y="0" class="key tap">UNLK</text>
</g>
<g transform="translate(98, 154)" class="key keypos-29">
<rect rx="6" ry="6" x="-26" y="-26" width="52" height="52" class="key"/>
</g>
<g transform="translate(154, 140)" class="key keypos-30">
<rect rx="6" ry="6" x="-26" y="-26" width="52" height="52" class="key"/>
</g>
<g transform="translate(210, 140)" class="key keypos-31">
<rect rx="6" ry="6" x="-26" y="-26" width="52" height="52" class="key"/>
</g>
<g transform="translate(266, 140)" class="key keypos-32">
<rect rx="6" ry="6" x="-26" y="-26" width="52" height="52" class="key"/>
</g>
<g transform="translate(322, 140)" class="key keypos-33">
<rect rx="6" ry="6" x="-26" y="-26" width="52" height="52" class="key"/>
</g>
<g transform="translate(378, 140)" class="key keypos-34">
<rect rx="6" ry="6" x="-26" y="-26" width="52" height="52" class="key"/>
</g>
<g transform="translate(395, 280) rotate(15.0)" class="key keypos-35">
<rect rx="6" ry="6" x="-26" y="-26" width="52" height="52" class="key"/>
</g>
<g transform="translate(449, 295) rotate(15.0)" class="key keypos-36">
<rect rx="6" ry="6" x="-26" y="-26" width="52" height="52" class="key"/>
</g>
<g transform="translate(559, 295) rotate(-15.0)" class="key keypos-37">
<rect rx="6" ry="6" x="-26" y="-26" width="52" height="52" class="key"/>
<text x="0" y="0" class="key tap">
<tspan x="0" dy="-0.6em">BT</tspan><tspan x="0" dy="1.2em">CLR</tspan>
</text>
</g>
<g transform="translate(613, 280) rotate(-15.0)" class="key keypos-38">
<rect rx="6" ry="6" x="-26" y="-26" width="52" height="52" class="key"/>
</g>
<g transform="translate(630, 140)" class="key keypos-39">
<rect rx="6" ry="6" x="-26" y="-26" width="52" height="52" class="key"/>
<text x="0" y="0" class="key tap">BATT</text>
</g>
<g transform="translate(686, 140)" class="key keypos-40">
<rect rx="6" ry="6" x="-26" y="-26" width="52" height="52" class="key"/>
</g>
<g transform="translate(742, 140)" class="key keypos-41">
<rect rx="6" ry="6" x="-26" y="-26" width="52" height="52" class="key"/>
</g>
<g transform="translate(798, 140)" class="key keypos-42">
<rect rx="6" ry="6" x="-26" y="-26" width="52" height="52" class="key"/>
</g>
<g transform="translate(854, 140)" class="key keypos-43">
<rect rx="6" ry="6" x="-26" y="-26" width="52" height="52" class="key"/>
</g>
<g transform="translate(910, 154)" class="key keypos-44">
<rect rx="6" ry="6" x="-26" y="-26" width="52" height="52" class="key"/>
</g>
<g transform="translate(973, 154)" class="key keypos-45">
<rect rx="6" ry="6" x="-33" y="-26" width="66" height="52" class="key"/>
</g>
<g transform="translate(35, 210)" class="key keypos-46">
<rect rx="6" ry="6" x="-33" y="-26" width="66" height="52" class="key"/>
</g>
<g transform="translate(98, 210)" class="key keypos-47">
<rect rx="6" ry="6" x="-26" y="-26" width="52" height="52" class="key"/>
</g>
<g transform="translate(154, 196)" class="key keypos-48">
<rect rx="6" ry="6" x="-26" y="-26" width="52" height="52" class="key"/>
</g>
<g transform="translate(210, 196)" class="key keypos-49">
<rect rx="6" ry="6" x="-26" y="-26" width="52" height="52" class="key"/>
</g>
<g transform="translate(266, 196)" class="key keypos-50">
<rect rx="6" ry="6" x="-26" y="-26" width="52" height="52" class="key"/>
<text x="0" y="0" class="key tap">VER</text>
</g>
<g transform="translate(322, 196)" class="key keypos-51">
<rect rx="6" ry="6" x="-26" y="-26" width="52" height="52" class="key"/>
</g>
<g transform="translate(435, 349) rotate(15.0)" class="key keypos-52">
<rect rx="6" ry="6" x="-26" y="-26" width="52" height="52" class="key"/>
</g>
<g transform="translate(573, 349) rotate(-15.0)" class="key keypos-53">
<rect rx="6" ry="6" x="-26" y="-26" width="52" height="52" class="key"/>
</g>
<g transform="translate(686, 196)" class="key keypos-54">
<rect rx="6" ry="6" x="-26" y="-26" width="52" height="52" class="key"/>
</g>
<g transform="translate(742, 196)" class="key keypos-55">
<rect rx="6" ry="6" x="-26" y="-26" width="52" height="52" class="key"/>
</g>
<g transform="translate(798, 196)" class="key keypos-56">
<rect rx="6" ry="6" x="-26" y="-26" width="52" height="52" class="key"/>
</g>
<g transform="translate(854, 196)" class="key keypos-57">
<rect rx="6" ry="6" x="-26" y="-26" width="52" height="52" class="key"/>
</g>
<g transform="translate(910, 210)" class="key keypos-58">
<rect rx="6" ry="6" x="-26" y="-26" width="52" height="52" class="key"/>
</g>
<g transform="translate(973, 210)" class="key keypos-59">
<rect rx="6" ry="6" x="-33" y="-26" width="66" height="52" class="key"/>
</g>
<g transform="translate(35, 266)" class="key keypos-60">
<rect rx="6" ry="6" x="-33" y="-26" width="66" height="52" class="key"/>
</g>
<g transform="translate(98, 266)" class="key keypos-61">
<rect rx="6" ry="6" x="-26" y="-26" width="52" height="52" class="key"/>
</g>
<g transform="translate(154, 252)" class="key keypos-62">
<rect rx="6" ry="6" x="-26" y="-26" width="52" height="52" class="key"/>
</g>
<g transform="translate(210, 252)" class="key keypos-63">
<rect rx="6" ry="6" x="-26" y="-26" width="52" height="52" class="key"/>
</g>
<g transform="translate(266, 252)" class="key keypos-64">
<rect rx="6" ry="6" x="-26" y="-26" width="52" height="52" class="key"/>
</g>
<g transform="translate(319, 347) rotate(15.0)" class="key keypos-65">
<rect rx="6" ry="6" x="-26" y="-54" width="52" height="108" class="key"/>
</g>
<g transform="translate(373, 361) rotate(15.0)" class="key keypos-66">
<rect rx="6" ry="6" x="-26" y="-54" width="52" height="108" class="key"/>
</g>
<g transform="translate(420, 403) rotate(15.0)" class="key keypos-67">
<rect rx="6" ry="6" x="-26" y="-26" width="52" height="52" class="key"/>
</g>
<g transform="translate(588, 403) rotate(-15.0)" class="key keypos-68">
<rect rx="6" ry="6" x="-26" y="-26" width="52" height="52" class="key"/>
</g>
<g transform="translate(635, 361) rotate(-15.0)" class="key keypos-69">
<rect rx="6" ry="6" x="-26" y="-54" width="52" height="108" class="key"/>
<text x="0" y="0" class="key tap">
<tspan x="0" dy="-0.6em">BL</tspan><tspan x="0" dy="1.2em">TOG</tspan>
</text>
</g>
<g transform="translate(689, 347) rotate(-15.0)" class="key keypos-70">
<rect rx="6" ry="6" x="-26" y="-54" width="52" height="108" class="key"/>
<text x="0" y="0" class="key tap">RGB</text>
</g>
<g transform="translate(742, 252)" class="key keypos-71">
<rect rx="6" ry="6" x="-26" y="-26" width="52" height="52" class="key"/>
<text x="0" y="0" class="key tap">BL+</text>
</g>
<g transform="translate(798, 252)" class="key keypos-72">
<rect rx="6" ry="6" x="-26" y="-26" width="52" height="52" class="key"/>
<text x="0" y="0" class="key tap">BL-</text>
</g>
<g transform="translate(854, 252)" class="key keypos-73">
<rect rx="6" ry="6" x="-26" y="-26" width="52" height="52" class="key"/>
</g>
<g transform="translate(910, 266)" class="key keypos-74">
<rect rx="6" ry="6" x="-26" y="-26" width="52" height="52" class="key"/>
</g>
<g transform="translate(973, 266)" class="key keypos-75">
<rect rx="6" ry="6" x="-33" y="-26" width="66" height="52" class="key"/>
</g>
</g>
</g>
</svg>
