<svg width="1068" height="1042" viewBox="0 0 1068 1042" class="keymap" xmlns="http://www.w3.org/2000/svg" xmlns:xlink="http://www.w3.org/1999/xlink">
<style>/* Base key style */
.key {
  fill: #ffffff;
  stroke: #aaaaaa;
  stroke-width: 1;
}

/* Layer title styling */
.layer-label {
  font-weight: bold;
  font-size: 18px;
  fill: #333333;
  font-family: 'Arial', sans-serif;
}

/* Text styling */
text {
  font-family: 'Arial', sans-serif;
  fill: #000000;
  text-anchor: middle;
  dominant-baseline: central;
  font-weight: 700;
  stroke: none;
} 
/* App shortcuts */
.WhatsApp-key {
  fill: #25D366 !important;
  stroke: #1EA952 !important;
}

.WhatsApp-key rect, rect.WhatsApp-key {
  fill: #25D366 !important;
  stroke: #1EA952 !important;
}

.Spotify-key {
  fill: #1DB954 !important;
  stroke: #169D45 !important;
}

.Spotify-key rect, rect.Spotify-key {
  fill: #1DB954 !important;
  stroke: #169D45 !important;
}

.Chrome-key {
  fill: #4285F4 !important;
  stroke: #366AC1 !important;
}

.Chrome-key rect, rect.Chrome-key {
  fill: #4285F4 !important;
  stroke: #366AC1 !important;
}

.Cursor-key {
  fill: #9B59B6 !important;
  stroke: #8E44AD !important;
}

.Cursor-key rect, rect.Cursor-key {
  fill: #9B59B6 !important;
  stroke: #8E44AD !important;
}

.GitHub-key {
  fill: #1DB954 !important;
  stroke: #169D45 !important;
}

.GitHub-key rect, rect.GitHub-key {
  fill: #1DB954 !important;
  stroke: #169D45 !important;
}

.topLeft-key {
  fill: #33cc33 !important;
  stroke: #1EA952 !important;
}

.topLeft-key rect, rect.topLeft-key {
  fill: #33cc33 !important;
  stroke: #1EA952 !important;
}

.LeftScr-key {
  fill: #E67E22 !important;
  stroke: #D35400 !important;
}

.LeftScr-key rect, rect.LeftScr-key {
  fill: #E67E22 !important;
  stroke: #D35400 !important;
}

.RightScr-key {
  fill: #F39C12 !important;
  stroke: #E67E22 !important;
}

.RightScr-key rect, rect.RightScr-key {
  fill: #F39C12 !important;
  stroke: #E67E22 !important;
}

/* Currency symbols */
.euro-key {
  fill: #2980B9 !important;
  stroke: #2471A3 !important;
}

.euro-key rect, rect.euro-key {
  fill: #2980B9 !important;
  stroke: #2471A3 !important;
}

.pound-key {
  fill: #3498DB !important;
  stroke: #2980B9 !important;
}

.pound-key rect, rect.pound-key {
  fill: #3498DB !important;
  stroke: #2980B9 !important;
}

/* System keys */
.BOOT-key {
  fill: #E74C3C !important;
  stroke: #C0392B !important;
}

.BOOT-key rect, rect.BOOT-key {
  fill: #E74C3C !important;
  stroke: #C0392B !important;
}

.Fn1-key {
  fill: #9B59B6 !important;
  stroke: #8E44AD !important;
}

.Fn1-key rect, rect.Fn1-key {
  fill: #9B59B6 !important;
  stroke: #8E44AD !important;
}

.Fn2-key {
  fill: #8E44AD !important;
  stroke: #7D3C98 !important;
}

.Fn2-key rect, rect.Fn2-key {
  fill: #8E44AD !important;
  stroke: #7D3C98 !important;
}

/* Special characters */
.Email-key {
  fill: #16A085 !important;
  stroke: #0E6655 !important;
}

.Email-key rect, rect.Email-key {
  fill: #16A085 !important;
  stroke: #0E6655 !important;
}

.o-umlaut-key {
  fill: #2ECC71 !important;
  stroke: #27AE60 !important;
}

.o-umlaut-key rect, rect.o-umlaut-key {
  fill: #2ECC71 !important;
  stroke: #27AE60 !important;
}

.a-ring-key {
  fill: #2ECC71 !important;
  stroke: #27AE60 !important;
}

.a-ring-key rect, rect.a-ring-key {
  fill: #2ECC71 !important;
  stroke: #27AE60 !important;
}

.a-umlaut-key {
  fill: #2ECC71 !important;
  stroke: #27AE60 !important;
}

.a-umlaut-key rect, rect.a-umlaut-key {
  fill: #2ECC71 !important;
  stroke: #27AE60 !important;
}

/* Navigation keys */
.arrow-key {
  fill: #3498DB !important;
  stroke: #2980B9 !important;
}

.arrow-key rect, rect.arrow-key {
  fill: #3498DB !important;
  stroke: #2980B9 !important;
}

/* Screenshot */
.Screenshot-key {
  fill: #ffbb77 !important;
  stroke: #C0392B !important;
}

.Screenshot-key rect, rect.Screenshot-key {
  fill: #ffbb77 !important;
  stroke: #C0392B !important;
}

/* Modifiers */
.mod-key {
  fill: #95A5A6 !important;
  stroke: #7F8C8D !important;
}

.mod-key rect, rect.mod-key {
  fill: #95A5A6 !important;
  stroke: #7F8C8D !important;
}

/* Font adjustments to make text more solid */
text, tspan {
  font-family: 'Arial', sans-serif !important;
  font-weight: 700 !important;
  fill: #000000 !important;
  stroke: none !important;
  text-rendering: geometricPrecision !important;
}

/* Ensure all key text is black and bold */
.key text, .key tspan {
  fill: #000000 !important;
  font-weight: 700 !important;
}

/* Make text on colored keys more readable */
.WhatsApp-key text, .WhatsApp-key tspan,
.Spotify-key text, .Spotify-key tspan,
.Chrome-key text, .Chrome-key tspan,
.Cursor-key text, .Cursor-key tspan,
.GitHub-key text, .GitHub-key tspan,
.topLeft-key text, .topLeft-key tspan,
.LeftScr-key text, .LeftScr-key tspan,
.RightScr-key text, .RightScr-key tspan,
.euro-key text, .euro-key tspan,
.pound-key text, .pound-key tspan,
.BOOT-key text, .BOOT-key tspan,
.Fn1-key text, .Fn1-key tspan,
.Fn2-key text, .Fn2-key tspan,
.Email-key text, .Email-key tspan,
.o-umlaut-key text, .o-umlaut-key tspan,
.a-ring-key text, .a-ring-key tspan,
.arrow-key text, .arrow-key tspan,
.Screenshot-key text, .Screenshot-key tspan,
.mod-key text, .mod-key tspan {
  fill: #000000 !important;
  font-weight: 700 !important;
}

/* Shifted symbols styling */
.shifted {
  fill: #555555 !important;
  font-weight: 700 !important;
  font-size: 10px !important;
}

/* Position the shifted symbols above the main key label */
.key text.shifted {
  dominant-baseline: hanging !important;
}

/* Add CSS for dual-labeled keys */
.dual-label {
  position: relative;
  display: block;
}

.primary-label {
  font-size: 14px;
  font-weight: 700;
  text-anchor: middle;
  dominant-baseline: central;
  fill: #000000;
}

.shifted-label {
  font-size: 10px;
  font-weight: 700;
  text-anchor: middle;
  dominant-baseline: hanging;
  fill: #444444;
} </style>
<g transform="translate(30, 0)" class="layer-Base">
<text x="0" y="28" class="label" id="Base">Base:</text>
<g transform="translate(0, 56)">
<g transform="translate(35, 42)" class="key keypos-0">
<rect rx="6" ry="6" x="-33" y="-26" width="66" height="52" class="key"/>
<text x="0" y="0" class="key tap"><tspan class="mod-key">Esc</tspan></text>
</g>
<g transform="translate(98, 42)" class="key keypos-1">
<rect rx="6" ry="6" x="-26" y="-26" width="52" height="52" class="key"/>
<text x="0" y="0" class="key tap"><tspan class="primary-label" y="5">1</tspan><tspan class="shifted-label" x="0" y="-15">!</tspan></text>
</g>
<g transform="translate(154, 28)" class="key keypos-2">
<rect rx="6" ry="6" x="-26" y="-26" width="52" height="52" class="key"/>
<text x="0" y="0" class="key tap"><tspan class="primary-label" y="5">2</tspan><tspan class="shifted-label" x="0" y="-15">@</tspan></text>
</g>
<g transform="translate(210, 28)" class="key keypos-3">
<rect rx="6" ry="6" x="-26" y="-26" width="52" height="52" class="key"/>
<text x="0" y="0" class="key tap"><tspan class="primary-label" y="5">3</tspan><tspan class="shifted-label" x="0" y="-15">#</tspan></text>
</g>
<g transform="translate(266, 28)" class="key keypos-4">
<rect rx="6" ry="6" x="-26" y="-26" width="52" height="52" class="key"/>
<text x="0" y="0" class="key tap"><tspan class="primary-label" y="5">4</tspan><tspan class="shifted-label" x="0" y="-15">$</tspan></text>
</g>
<g transform="translate(322, 28)" class="key keypos-5">
<rect rx="6" ry="6" x="-26" y="-26" width="52" height="52" class="key"/>
<text x="0" y="0" class="key tap"><tspan class="primary-label" y="5">5</tspan><tspan class="shifted-label" x="0" y="-15">%</tspan></text>
</g>
<g transform="translate(378, 28)" class="key keypos-6">
<rect class="BOOT-key" x="-26" y="-26" width="52" height="52" rx="6" ry="6"/>
<text x="0" y="0" class="key tap"><tspan class="BOOT-key">Boot</tspan></text>
</g>
<g transform="translate(630, 28)" class="key keypos-7">
<rect class="BOOT-key" x="-26" y="-26" width="52" height="52" rx="6" ry="6"/>
<text x="0" y="0" class="key tap"><tspan class="BOOT-key">Boot</tspan></text>
</g>
<g transform="translate(686, 28)" class="key keypos-8">
<rect rx="6" ry="6" x="-26" y="-26" width="52" height="52" class="key"/>
<text x="0" y="0" class="key tap"><tspan class="primary-label" y="5">6</tspan><tspan class="shifted-label" x="0" y="-15">^</tspan></text>
</g>
<g transform="translate(742, 28)" class="key keypos-9">
<rect rx="6" ry="6" x="-26" y="-26" width="52" height="52" class="key"/>
<text x="0" y="0" class="key tap"><tspan class="primary-label" y="5">7</tspan><tspan class="shifted-label" x="0" y="-15">&amp;</tspan></text>
</g>
<g transform="translate(798, 28)" class="key keypos-10">
<rect rx="6" ry="6" x="-26" y="-26" width="52" height="52" class="key"/>
<text x="0" y="0" class="key tap">8</text>
</g>
<g transform="translate(854, 28)" class="key keypos-11">
<rect rx="6" ry="6" x="-26" y="-26" width="52" height="52" class="key"/>
<text x="0" y="0" class="key tap"><tspan class="primary-label" y="5">9</tspan><tspan class="shifted-label" x="0" y="-15">(</tspan></text>
</g>
<g transform="translate(910, 42)" class="key keypos-12">
<rect rx="6" ry="6" x="-26" y="-26" width="52" height="52" class="key"/>
<text x="0" y="0" class="key tap">0</text>
</g>
<g transform="translate(973, 42)" class="key keypos-13">
<rect rx="6" ry="6" x="-33" y="-26" width="66" height="52" class="key"/>
<text x="0" y="0" class="key tap"><tspan class="primary-label" y="5">-</tspan><tspan class="shifted-label" x="0" y="-15">_</tspan></text>
</g>
<g transform="translate(35, 98)" class="key keypos-14">
<rect rx="6" ry="6" x="-33" y="-26" width="66" height="52" class="key"/>
<text x="0" y="0" class="key tap"><tspan class="mod-key">Tab</tspan></text>
</g>
<g transform="translate(98, 98)" class="key keypos-15">
<rect rx="6" ry="6" x="-26" y="-26" width="52" height="52" class="key"/>
<text x="0" y="0" class="key tap">Q</text>
</g>
<g transform="translate(154, 84)" class="key keypos-16">
<rect rx="6" ry="6" x="-26" y="-26" width="52" height="52" class="key"/>
<text x="0" y="0" class="key tap">W</text>
</g>
<g transform="translate(210, 84)" class="key keypos-17">
<rect rx="6" ry="6" x="-26" y="-26" width="52" height="52" class="key"/>
<text x="0" y="0" class="key tap">E</text>
</g>
<g transform="translate(266, 84)" class="key keypos-18">
<rect rx="6" ry="6" x="-26" y="-26" width="52" height="52" class="key"/>
<text x="0" y="0" class="key tap">R</text>
</g>
<g transform="translate(322, 84)" class="key keypos-19">
<rect rx="6" ry="6" x="-26" y="-26" width="52" height="52" class="key"/>
<text x="0" y="0" class="key tap">T</text>
</g>
<g transform="translate(378, 84)" class="key keypos-20">
<rect rx="6" ry="6" x="-26" y="-26" width="52" height="52" class="key"/>
<text x="0" y="0" class="key tap">+</text>
</g>
<g transform="translate(630, 84)" class="key keypos-21">
<rect rx="6" ry="6" x="-26" y="-26" width="52" height="52" class="key"/>
</g>
<g transform="translate(686, 84)" class="key keypos-22">
<rect rx="6" ry="6" x="-26" y="-26" width="52" height="52" class="key"/>
<text x="0" y="0" class="key tap">Y</text>
</g>
<g transform="translate(742, 84)" class="key keypos-23">
<rect rx="6" ry="6" x="-26" y="-26" width="52" height="52" class="key"/>
<text x="0" y="0" class="key tap">U</text>
</g>
<g transform="translate(798, 84)" class="key keypos-24">
<rect rx="6" ry="6" x="-26" y="-26" width="52" height="52" class="key"/>
<text x="0" y="0" class="key tap">I</text>
</g>
<g transform="translate(854, 84)" class="key keypos-25">
<rect rx="6" ry="6" x="-26" y="-26" width="52" height="52" class="key"/>
<text x="0" y="0" class="key tap">O</text>
</g>
<g transform="translate(910, 98)" class="key keypos-26">
<rect rx="6" ry="6" x="-26" y="-26" width="52" height="52" class="key"/>
<text x="0" y="0" class="key tap">P</text>
</g>
<g transform="translate(973, 98)" class="key keypos-27">
<rect rx="6" ry="6" x="-33" y="-26" width="66" height="52" class="key"/>
<text x="0" y="0" class="key tap"><tspan class="primary-label" y="5">\</tspan><tspan class="shifted-label" x="0" y="-15">|</tspan></text>
</g>
<g transform="translate(35, 154)" class="key keypos-28">
<rect rx="6" ry="6" x="-33" y="-26" width="66" height="52" class="key"/>
<text x="0" y="0" class="key tap"><tspan class="primary-label" y="5">=</tspan><tspan class="shifted-label" x="0" y="-15">+</tspan></text>
</g>
<g transform="translate(98, 154)" class="key keypos-29">
<rect rx="6" ry="6" x="-26" y="-26" width="52" height="52" class="key"/>
<text x="0" y="0" class="key tap">A</text>
</g>
<g transform="translate(154, 140)" class="key keypos-30">
<rect rx="6" ry="6" x="-26" y="-26" width="52" height="52" class="key"/>
<text x="0" y="0" class="key tap">S</text>
</g>
<g transform="translate(210, 140)" class="key keypos-31">
<rect rx="6" ry="6" x="-26" y="-26" width="52" height="52" class="key"/>
<text x="0" y="0" class="key tap">D</text>
</g>
<g transform="translate(266, 140)" class="key keypos-32">
<rect rx="6" ry="6" x="-26" y="-26" width="52" height="52" class="key"/>
<text x="0" y="0" class="key tap">F</text>
</g>
<g transform="translate(322, 140)" class="key keypos-33">
<rect rx="6" ry="6" x="-26" y="-26" width="52" height="52" class="key"/>
<text x="0" y="0" class="key tap">G</text>
</g>
<g transform="translate(378, 140)" class="key keypos-34">
<rect rx="6" ry="6" x="-26" y="-26" width="52" height="52" class="key"/>
<text x="0" y="0" class="key tap"><tspan class="primary-label" y="5">-</tspan><tspan class="shifted-label" x="0" y="-15">_</tspan></text>
</g>
<g transform="translate(395, 280) rotate(15.0)" class="key keypos-35">
<rect rx="6" ry="6" x="-26" y="-26" width="52" height="52" class="key"/>
<text x="0" y="0" class="key tap">mnt</text>
</g>
<g transform="translate(449, 295) rotate(15.0)" class="key keypos-36">
<rect rx="6" ry="6" x="-26" y="-26" width="52" height="52" class="key"/>
<text x="0" y="0" class="key tap">Gmail</text>
</g>
<g transform="translate(559, 295) rotate(-15.0)" class="key keypos-37">
<rect rx="6" ry="6" x="-26" y="-26" width="52" height="52" class="key"/>
</g>
<g transform="translate(613, 280) rotate(-15.0)" class="key keypos-38">
<rect rx="6" ry="6" x="-26" y="-26" width="52" height="52" class="key"/>
</g>
<g transform="translate(630, 140)" class="key keypos-39">
<rect rx="6" ry="6" x="-26" y="-26" width="52" height="52" class="key"/>
<text x="0" y="0" class="key tap">Batt</text>
</g>
<g transform="translate(686, 140)" class="key keypos-40">
<rect rx="6" ry="6" x="-26" y="-26" width="52" height="52" class="key"/>
<text x="0" y="0" class="key tap">H</text>
</g>
<g transform="translate(742, 140)" class="key keypos-41">
<rect rx="6" ry="6" x="-26" y="-26" width="52" height="52" class="key"/>
<text x="0" y="0" class="key tap">J</text>
</g>
<g transform="translate(798, 140)" class="key keypos-42">
<rect rx="6" ry="6" x="-26" y="-26" width="52" height="52" class="key"/>
<text x="0" y="0" class="key tap">K</text>
</g>
<g transform="translate(854, 140)" class="key keypos-43">
<rect rx="6" ry="6" x="-26" y="-26" width="52" height="52" class="key"/>
<text x="0" y="0" class="key tap">L</text>
</g>
<g transform="translate(910, 154)" class="key keypos-44">
<rect rx="6" ry="6" x="-26" y="-26" width="52" height="52" class="key"/>
<text x="0" y="0" class="key tap"><tspan class="primary-label" y="5">;</tspan><tspan class="shifted-label" x="0" y="-15">:</tspan></text>
</g>
<g transform="translate(973, 154)" class="key keypos-45">
<rect rx="6" ry="6" x="-33" y="-26" width="66" height="52" class="key"/>
<text x="0" y="0" class="key tap">&#x27;</text>
</g>
<g transform="translate(35, 210)" class="key keypos-46">
<rect rx="6" ry="6" x="-33" y="-26" width="66" height="52" class="key"/>
<text x="0" y="0" class="key tap"><tspan class="mod-key">Shft</tspan></text>
</g>
<g transform="translate(98, 210)" class="key keypos-47">
<rect rx="6" ry="6" x="-26" y="-26" width="52" height="52" class="key"/>
<text x="0" y="0" class="key tap">Z</text>
</g>
<g transform="translate(154, 196)" class="key keypos-48">
<rect rx="6" ry="6" x="-26" y="-26" width="52" height="52" class="key"/>
<text x="0" y="0" class="key tap">X</text>
</g>
<g transform="translate(210, 196)" class="key keypos-49">
<rect rx="6" ry="6" x="-26" y="-26" width="52" height="52" class="key"/>
<text x="0" y="0" class="key tap">C</text>
</g>
<g transform="translate(266, 196)" class="key keypos-50">
<rect rx="6" ry="6" x="-26" y="-26" width="52" height="52" class="key"/>
<text x="0" y="0" class="key tap">V</text>
</g>
<g transform="translate(322, 196)" class="key keypos-51">
<rect rx="6" ry="6" x="-26" y="-26" width="52" height="52" class="key"/>
<text x="0" y="0" class="key tap">B</text>
</g>
<g transform="translate(435, 349) rotate(15.0)" class="key keypos-52">
<rect class="Screenshot-key" x="-26" y="-26" width="52" height="52" rx="6" ry="6"/>
<text x="0" y="0" class="key tap"><tspan class="Screenshot-key">ScrS</tspan></text>
</g>
<g transform="translate(573, 349) rotate(-15.0)" class="key keypos-53">
<rect rx="6" ry="6" x="-26" y="-26" width="52" height="52" class="key"/>
</g>
<g transform="translate(686, 196)" class="key keypos-54">
<rect rx="6" ry="6" x="-26" y="-26" width="52" height="52" class="key"/>
<text x="0" y="0" class="key tap">N</text>
</g>
<g transform="translate(742, 196)" class="key keypos-55">
<rect rx="6" ry="6" x="-26" y="-26" width="52" height="52" class="key"/>
<text x="0" y="0" class="key tap">M</text>
</g>
<g transform="translate(798, 196)" class="key keypos-56">
<rect rx="6" ry="6" x="-26" y="-26" width="52" height="52" class="key"/>
<text x="0" y="0" class="key tap"><tspan class="primary-label" y="5">,</tspan><tspan class="shifted-label" x="0" y="-15">&lt;</tspan></text>
</g>
<g transform="translate(854, 196)" class="key keypos-57">
<rect rx="6" ry="6" x="-26" y="-26" width="52" height="52" class="key"/>
<text x="0" y="0" class="key tap">.</text>
</g>
<g transform="translate(910, 210)" class="key keypos-58">
<rect rx="6" ry="6" x="-26" y="-26" width="52" height="52" class="key"/>
<text x="0" y="0" class="key tap">/</text>
</g>
<g transform="translate(973, 210)" class="key keypos-59">
<rect rx="6" ry="6" x="-33" y="-26" width="66" height="52" class="key"/>
<text x="0" y="0" class="key tap"><tspan class="mod-key">Shft</tspan></text>
</g>
<g transform="translate(35, 266)" class="key keypos-60">
<rect rx="6" ry="6" x="-33" y="-26" width="66" height="52" class="key"/>
<text x="0" y="0" class="key tap"><tspan class="mod-key">Ctrl</tspan></text>
</g>
<g transform="translate(98, 266)" class="key keypos-61">
<rect rx="6" ry="6" x="-26" y="-26" width="52" height="52" class="key"/>
<text x="0" y="0" class="key tap"><tspan class="mod-key">Alt</tspan></text>
</g>
<g transform="translate(154, 252)" class="key keypos-62">
<rect rx="6" ry="6" x="-26" y="-26" width="52" height="52" class="key"/>
</g>
<g transform="translate(210, 252)" class="key keypos-63">
<rect rx="6" ry="6" x="-26" y="-26" width="52" height="52" class="key"/>
<text x="0" y="0" class="key tap"><tspan class="arrow-key">←</tspan></text>
</g>
<g transform="translate(266, 252)" class="key keypos-64">
<rect rx="6" ry="6" x="-26" y="-26" width="52" height="52" class="key"/>
<text x="0" y="0" class="key tap"><tspan class="arrow-key">→</tspan></text>
</g>
<g transform="translate(319, 347) rotate(15.0)" class="key keypos-65">
<rect rx="6" ry="6" x="-26" y="-54" width="52" height="108" class="key"/>
<text x="0" y="0" class="key tap"><tspan class="mod-key">Spce</tspan></text>
</g>
<g transform="translate(373, 361) rotate(15.0)" class="key keypos-66">
<rect rx="6" ry="6" x="-26" y="-54" width="52" height="108" class="key"/>
<text x="0" y="0" class="key tap"><tspan class="mod-key">Cmd</tspan></text>
</g>
<g transform="translate(420, 403) rotate(15.0)" class="key keypos-67">
<rect class="Fn1-key" x="-26" y="-26" width="52" height="52" rx="6" ry="6"/>
<text x="0" y="0" class="key tap"><tspan class="Fn1-key">L1</tspan></text>
</g>
<g transform="translate(588, 403) rotate(-15.0)" class="key keypos-68">
<rect class="Fn1-key" x="-26" y="-26" width="52" height="52" rx="6" ry="6"/>
<text x="0" y="0" class="key tap"><tspan class="Fn1-key">L1</tspan></text>
</g>
<g transform="translate(635, 361) rotate(-15.0)" class="key keypos-69">
<rect rx="6" ry="6" x="-26" y="-54" width="52" height="108" class="key"/>
<text x="0" y="0" class="key tap"><tspan class="mod-key">↵</tspan></text>
</g>
<g transform="translate(689, 347) rotate(-15.0)" class="key keypos-70">
<rect rx="6" ry="6" x="-26" y="-54" width="52" height="108" class="key"/>
<text x="0" y="0" class="key tap"><tspan class="mod-key">⌫</tspan></text>
</g>
<g transform="translate(742, 252)" class="key keypos-71">
<rect rx="6" ry="6" x="-26" y="-26" width="52" height="52" class="key"/>
<text x="0" y="0" class="key tap"><tspan class="arrow-key">↑</tspan></text>
</g>
<g transform="translate(798, 252)" class="key keypos-72">
<rect rx="6" ry="6" x="-26" y="-26" width="52" height="52" class="key"/>
<text x="0" y="0" class="key tap"><tspan class="arrow-key">↓</tspan></text>
</g>
<g transform="translate(854, 252)" class="key keypos-73">
<rect rx="6" ry="6" x="-26" y="-26" width="52" height="52" class="key"/>
</g>
<g transform="translate(910, 266)" class="key keypos-74">
<rect rx="6" ry="6" x="-26" y="-26" width="52" height="52" class="key"/>
<text x="0" y="0" class="key tap"><tspan class="mod-key">Alt</tspan></text>
</g>
<g transform="translate(973, 266)" class="key keypos-75">
<rect rx="6" ry="6" x="-33" y="-26" width="66" height="52" class="key"/>
<text x="0" y="0" class="key tap"><tspan class="mod-key">Ctrl</tspan></text>
</g>
</g>
</g>
<g transform="translate(30, 493)" class="layer-BT Clear">
<text x="0" y="28" class="label" id="BT-Clear">BT Clear:</text>
<g transform="translate(0, 56)">
<g transform="translate(35, 42)" class="key keypos-0">
<rect rx="6" ry="6" x="-33" y="-26" width="66" height="52" class="key"/>
</g>
<g transform="translate(98, 42)" class="key keypos-1">
<rect rx="6" ry="6" x="-26" y="-26" width="52" height="52" class="key"/>
</g>
<g transform="translate(154, 28)" class="key keypos-2">
<rect rx="6" ry="6" x="-26" y="-26" width="52" height="52" class="key"/>
</g>
<g transform="translate(210, 28)" class="key keypos-3">
<rect rx="6" ry="6" x="-26" y="-26" width="52" height="52" class="key"/>
</g>
<g transform="translate(266, 28)" class="key keypos-4">
<rect rx="6" ry="6" x="-26" y="-26" width="52" height="52" class="key"/>
</g>
<g transform="translate(322, 28)" class="key keypos-5">
<rect rx="6" ry="6" x="-26" y="-26" width="52" height="52" class="key"/>
</g>
<g transform="translate(378, 28)" class="key keypos-6">
<rect rx="6" ry="6" x="-26" y="-26" width="52" height="52" class="key"/>
</g>
<g transform="translate(630, 28)" class="key keypos-7">
<rect rx="6" ry="6" x="-26" y="-26" width="52" height="52" class="key"/>
</g>
<g transform="translate(686, 28)" class="key keypos-8">
<rect rx="6" ry="6" x="-26" y="-26" width="52" height="52" class="key"/>
</g>
<g transform="translate(742, 28)" class="key keypos-9">
<rect rx="6" ry="6" x="-26" y="-26" width="52" height="52" class="key"/>
</g>
<g transform="translate(798, 28)" class="key keypos-10">
<rect rx="6" ry="6" x="-26" y="-26" width="52" height="52" class="key"/>
</g>
<g transform="translate(854, 28)" class="key keypos-11">
<rect rx="6" ry="6" x="-26" y="-26" width="52" height="52" class="key"/>
</g>
<g transform="translate(910, 42)" class="key keypos-12">
<rect rx="6" ry="6" x="-26" y="-26" width="52" height="52" class="key"/>
</g>
<g transform="translate(973, 42)" class="key keypos-13">
<rect rx="6" ry="6" x="-33" y="-26" width="66" height="52" class="key"/>
</g>
<g transform="translate(35, 98)" class="key keypos-14">
<rect rx="6" ry="6" x="-33" y="-26" width="66" height="52" class="key"/>
</g>
<g transform="translate(98, 98)" class="key keypos-15">
<rect rx="6" ry="6" x="-26" y="-26" width="52" height="52" class="key"/>
</g>
<g transform="translate(154, 84)" class="key keypos-16">
<rect rx="6" ry="6" x="-26" y="-26" width="52" height="52" class="key"/>
</g>
<g transform="translate(210, 84)" class="key keypos-17">
<rect rx="6" ry="6" x="-26" y="-26" width="52" height="52" class="key"/>
</g>
<g transform="translate(266, 84)" class="key keypos-18">
<rect rx="6" ry="6" x="-26" y="-26" width="52" height="52" class="key"/>
</g>
<g transform="translate(322, 84)" class="key keypos-19">
<rect rx="6" ry="6" x="-26" y="-26" width="52" height="52" class="key"/>
</g>
<g transform="translate(378, 84)" class="key keypos-20">
<rect rx="6" ry="6" x="-26" y="-26" width="52" height="52" class="key"/>
</g>
<g transform="translate(630, 84)" class="key keypos-21">
<rect rx="6" ry="6" x="-26" y="-26" width="52" height="52" class="key"/>
<text x="0" y="0" class="key tap">CLR</text>
</g>
<g transform="translate(686, 84)" class="key keypos-22">
<rect rx="6" ry="6" x="-26" y="-26" width="52" height="52" class="key"/>
</g>
<g transform="translate(742, 84)" class="key keypos-23">
<rect rx="6" ry="6" x="-26" y="-26" width="52" height="52" class="key"/>
</g>
<g transform="translate(798, 84)" class="key keypos-24">
<rect rx="6" ry="6" x="-26" y="-26" width="52" height="52" class="key"/>
</g>
<g transform="translate(854, 84)" class="key keypos-25">
<rect rx="6" ry="6" x="-26" y="-26" width="52" height="52" class="key"/>
</g>
<g transform="translate(910, 98)" class="key keypos-26">
<rect rx="6" ry="6" x="-26" y="-26" width="52" height="52" class="key"/>
</g>
<g transform="translate(973, 98)" class="key keypos-27">
<rect class="a-ring-key" x="-26" y="-26" width="52" height="52" rx="6" ry="6"/>
<text x="0" y="0" class="key tap"><tspan class="a-ring-key">å</tspan></text>
</g>
<g transform="translate(35, 154)" class="key keypos-28">
<rect rx="6" ry="6" x="-33" y="-26" width="66" height="52" class="key"/>
</g>
<g transform="translate(98, 154)" class="key keypos-29">
<rect rx="6" ry="6" x="-26" y="-26" width="52" height="52" class="key"/>
</g>
<g transform="translate(154, 140)" class="key keypos-30">
<rect rx="6" ry="6" x="-26" y="-26" width="52" height="52" class="key"/>
</g>
<g transform="translate(210, 140)" class="key keypos-31">
<rect rx="6" ry="6" x="-26" y="-26" width="52" height="52" class="key"/>
</g>
<g transform="translate(266, 140)" class="key keypos-32">
<rect rx="6" ry="6" x="-26" y="-26" width="52" height="52" class="key"/>
<text x="0" y="0" class="key tap">Gui+ESC</text>
</g>
<g transform="translate(322, 140)" class="key keypos-33">
<rect rx="6" ry="6" x="-26" y="-26" width="52" height="52" class="key"/>
</g>
<g transform="translate(378, 140)" class="key keypos-34">
<rect rx="6" ry="6" x="-26" y="-26" width="52" height="52" class="key"/>
</g>
<g transform="translate(395, 280) rotate(15.0)" class="key keypos-35">
<rect rx="6" ry="6" x="-26" y="-26" width="52" height="52" class="key"/>
</g>
<g transform="translate(449, 295) rotate(15.0)" class="key keypos-36">
<rect rx="6" ry="6" x="-26" y="-26" width="52" height="52" class="key"/>
</g>
<g transform="translate(559, 295) rotate(-15.0)" class="key keypos-37">
<rect rx="6" ry="6" x="-26" y="-26" width="52" height="52" class="key"/>
<text x="0" y="0" class="key tap">BT</text>
<text x="0" y="24" class="key hold">0</text>
</g>
<g transform="translate(613, 280) rotate(-15.0)" class="key keypos-38">
<rect rx="6" ry="6" x="-26" y="-26" width="52" height="52" class="key"/>
<text x="0" y="0" class="key tap">BT</text>
<text x="0" y="24" class="key hold">1</text>
</g>
<g transform="translate(630, 140)" class="key keypos-39">
<rect rx="6" ry="6" x="-26" y="-26" width="52" height="52" class="key"/>
</g>
<g transform="translate(686, 140)" class="key keypos-40">
<rect rx="6" ry="6" x="-26" y="-26" width="52" height="52" class="key"/>
</g>
<g transform="translate(742, 140)" class="key keypos-41">
<rect rx="6" ry="6" x="-26" y="-26" width="52" height="52" class="key"/>
</g>
<g transform="translate(798, 140)" class="key keypos-42">
<rect rx="6" ry="6" x="-26" y="-26" width="52" height="52" class="key"/>
</g>
<g transform="translate(854, 140)" class="key keypos-43">
<rect rx="6" ry="6" x="-26" y="-26" width="52" height="52" class="key"/>
</g>
<g transform="translate(910, 154)" class="key keypos-44">
<rect class="o-umlaut-key" x="-26" y="-26" width="52" height="52" rx="6" ry="6"/>
<text x="0" y="0" class="key tap"><tspan class="o-umlaut-key">ö</tspan></text>
</g>
<g transform="translate(973, 154)" class="key keypos-45">
<rect class="a-umlaut-key" x="-26" y="-26" width="52" height="52" rx="6" ry="6"/>
<text x="0" y="0" class="key tap"><tspan class="a-umlaut-key">ä</tspan></text>
</g>
<g transform="translate(35, 210)" class="key keypos-46">
<rect rx="6" ry="6" x="-33" y="-26" width="66" height="52" class="key"/>
</g>
<g transform="translate(98, 210)" class="key keypos-47">
<rect rx="6" ry="6" x="-26" y="-26" width="52" height="52" class="key"/>
</g>
<g transform="translate(154, 196)" class="key keypos-48">
<rect rx="6" ry="6" x="-26" y="-26" width="52" height="52" class="key"/>
</g>
<g transform="translate(210, 196)" class="key keypos-49">
<rect rx="6" ry="6" x="-26" y="-26" width="52" height="52" class="key"/>
</g>
<g transform="translate(266, 196)" class="key keypos-50">
<rect rx="6" ry="6" x="-26" y="-26" width="52" height="52" class="key"/>
</g>
<g transform="translate(322, 196)" class="key keypos-51">
<rect rx="6" ry="6" x="-26" y="-26" width="52" height="52" class="key"/>
</g>
<g transform="translate(435, 349) rotate(15.0)" class="key keypos-52">
<rect rx="6" ry="6" x="-26" y="-26" width="52" height="52" class="key"/>
</g>
<g transform="translate(573, 349) rotate(-15.0)" class="key keypos-53">
<rect rx="6" ry="6" x="-26" y="-26" width="52" height="52" class="key"/>
</g>
<g transform="translate(686, 196)" class="key keypos-54">
<rect rx="6" ry="6" x="-26" y="-26" width="52" height="52" class="key"/>
</g>
<g transform="translate(742, 196)" class="key keypos-55">
<rect rx="6" ry="6" x="-26" y="-26" width="52" height="52" class="key"/>
</g>
<g transform="translate(798, 196)" class="key keypos-56">
<rect rx="6" ry="6" x="-26" y="-26" width="52" height="52" class="key"/>
</g>
<g transform="translate(854, 196)" class="key keypos-57">
<rect rx="6" ry="6" x="-26" y="-26" width="52" height="52" class="key"/>
</g>
<g transform="translate(910, 210)" class="key keypos-58">
<rect rx="6" ry="6" x="-26" y="-26" width="52" height="52" class="key"/>
</g>
<g transform="translate(973, 210)" class="key keypos-59">
<rect rx="6" ry="6" x="-33" y="-26" width="66" height="52" class="key"/>
</g>
<g transform="translate(35, 266)" class="key keypos-60">
<rect rx="6" ry="6" x="-33" y="-26" width="66" height="52" class="key"/>
<text x="0" y="0" class="key tap">Gui+ESC</text>
</g>
<g transform="translate(98, 266)" class="key keypos-61">
<rect rx="6" ry="6" x="-26" y="-26" width="52" height="52" class="key"/>
</g>
<g transform="translate(154, 252)" class="key keypos-62">
<rect rx="6" ry="6" x="-26" y="-26" width="52" height="52" class="key"/>
</g>
<g transform="translate(210, 252)" class="key keypos-63">
<rect rx="6" ry="6" x="-26" y="-26" width="52" height="52" class="key"/>
</g>
<g transform="translate(266, 252)" class="key keypos-64">
<rect rx="6" ry="6" x="-26" y="-26" width="52" height="52" class="key"/>
</g>
<g transform="translate(319, 347) rotate(15.0)" class="key keypos-65">
<rect rx="6" ry="6" x="-26" y="-54" width="52" height="108" class="key"/>
</g>
<g transform="translate(373, 361) rotate(15.0)" class="key keypos-66">
<rect rx="6" ry="6" x="-26" y="-54" width="52" height="108" class="key"/>
</g>
<g transform="translate(420, 403) rotate(15.0)" class="key keypos-67">
<rect rx="6" ry="6" x="-26" y="-26" width="52" height="52" class="key"/>
</g>
<g transform="translate(588, 403) rotate(-15.0)" class="key keypos-68">
<rect rx="6" ry="6" x="-26" y="-26" width="52" height="52" class="key"/>
<text x="0" y="0" class="key tap">Mac</text>
</g>
<g transform="translate(635, 361) rotate(-15.0)" class="key keypos-69">
<rect rx="6" ry="6" x="-26" y="-54" width="52" height="108" class="key"/>
</g>
<g transform="translate(689, 347) rotate(-15.0)" class="key keypos-70">
<rect rx="6" ry="6" x="-26" y="-54" width="52" height="108" class="key"/>
</g>
<g transform="translate(742, 252)" class="key keypos-71">
<rect rx="6" ry="6" x="-26" y="-26" width="52" height="52" class="key"/>
</g>
<g transform="translate(798, 252)" class="key keypos-72">
<rect rx="6" ry="6" x="-26" y="-26" width="52" height="52" class="key"/>
</g>
<g transform="translate(854, 252)" class="key keypos-73">
<rect rx="6" ry="6" x="-26" y="-26" width="52" height="52" class="key"/>
</g>
<g transform="translate(910, 266)" class="key keypos-74">
<rect rx="6" ry="6" x="-26" y="-26" width="52" height="52" class="key"/>
</g>
<g transform="translate(973, 266)" class="key keypos-75">
<rect rx="6" ry="6" x="-33" y="-26" width="66" height="52" class="key"/>
</g>
</g>
</g>
</svg>
